<?xml version="1.0" encoding="UTF-8" standalone="no"?>
<!-- Generator: Adobe Illustrator 19.0.0, SVG Export Plug-In . SVG Version: 6.00 Build 0)  -->

<svg
   xmlns:dc="http://purl.org/dc/elements/1.1/"
   xmlns:cc="http://creativecommons.org/ns#"
   xmlns:rdf="http://www.w3.org/1999/02/22-rdf-syntax-ns#"
   xmlns:svg="http://www.w3.org/2000/svg"
   xmlns="http://www.w3.org/2000/svg"
   xmlns:sodipodi="http://sodipodi.sourceforge.net/DTD/sodipodi-0.dtd"
   xmlns:inkscape="http://www.inkscape.org/namespaces/inkscape"
   version="1.1"
   id="Capa_1"
   x="0px"
   y="0px"
   viewBox="0 0 48.605 48.605"
   style="enable-background:new 0 0 48.605 48.605;"
   xml:space="preserve"
   inkscape:version="0.91 r13725"
   sodipodi:docname="facebook.svg"><metadata
     id="metadata41"><rdf:RDF><cc:Work
         rdf:about=""><dc:format>image/svg+xml</dc:format><dc:type
           rdf:resource="http://purl.org/dc/dcmitype/StillImage" /></cc:Work></rdf:RDF></metadata><defs
     id="defs39" /><sodipodi:namedview
     pagecolor="#ffffff"
     bordercolor="#666666"
     borderopacity="1"
     objecttolerance="10"
     gridtolerance="10"
     guidetolerance="10"
     inkscape:pageopacity="0"
     inkscape:pageshadow="2"
     inkscape:window-width="703"
     inkscape:window-height="726"
     id="namedview37"
     showgrid="false"
     inkscape:zoom="4.8554676"
     inkscape:cx="24.3025"
     inkscape:cy="24.3025"
     inkscape:window-x="12"
     inkscape:window-y="28"
     inkscape:window-maximized="0"
     inkscape:current-layer="Capa_1" /><g
     id="g3"
     style="fill:#ffffff"><path
       d="M34.094,8.688h4.756V0.005h-8.643c-0.721-0.03-9.51-0.198-11.788,8.489c-0.033,0.091-0.761,2.157-0.761,6.983l-7.903,0.024   v9.107l7.913-0.023v24.021h12.087v-24h8v-9.131h-8v-2.873C29.755,10.816,30.508,8.688,34.094,8.688z M35.755,17.474v5.131h-8v24   h-8.087V22.579l-7.913,0.023v-5.107l7.934-0.023l-0.021-1.017c-0.104-5.112,0.625-7.262,0.658-7.365   c1.966-7.482,9.473-7.106,9.795-7.086l6.729,0.002v4.683h-2.756c-4.673,0-6.338,3.054-6.338,5.912v4.873L35.755,17.474   L35.755,17.474z"
       id="path5"
       style="fill:#ffffff" /></g><g
     id="g7" /><g
     id="g9" /><g
     id="g11" /><g
     id="g13" /><g
     id="g15" /><g
     id="g17" /><g
     id="g19" /><g
     id="g21" /><g
     id="g23" /><g
     id="g25" /><g
     id="g27" /><g
     id="g29" /><g
     id="g31" /><g
     id="g33" /><g
     id="g35" /></svg>